<svg width="137" height="23" viewBox="0 0 137 23" fill="none" xmlns="http://www.w3.org/2000/svg">
<path d="M37.7344 1H41.9975V22.6406H37.7344V1Z" fill="black"/>
<path d="M46.1172 1H60.7008V5.11658H55.4372V22.6406H51.1741V5.11658H46.1172V1Z" fill="black"/>
<path d="M83.0197 1V22.6406H78.7566V13.8495H69.0834V22.6406H64.8203V1H69.0834V9.73292H78.7566V1H83.0197Z" fill="black"/>
<path d="M95.1645 1C96.5173 1 97.7226 1.17144 98.7813 1.51431C99.8401 1.85719 100.726 2.3476 101.442 2.98452C102.157 3.62143 102.702 4.38615 103.075 5.27763C103.447 6.17014 103.634 7.17383 103.634 8.29181C103.634 9.17393 103.502 10.0561 103.237 10.9382C102.972 11.8203 102.54 12.6245 101.943 13.3497C101.345 14.075 100.556 14.6579 99.5762 15.0994C98.5953 15.541 97.3807 15.7613 95.9303 15.7613H92.8724V22.6416H88.6094V1H95.1666H95.1645ZM95.8991 11.6437C96.5464 11.6437 97.0846 11.5367 97.5158 11.3205C97.947 11.1055 98.2847 10.8312 98.5299 10.4976C98.7751 10.1641 98.9507 9.81708 99.0587 9.45343C99.1668 9.09081 99.2208 8.75313 99.2208 8.43935C99.2208 8.20453 99.1865 7.90529 99.118 7.54268C99.0494 7.18006 98.907 6.81225 98.692 6.44028C98.4759 6.06832 98.1475 5.75453 97.707 5.49893C97.2664 5.24438 96.6732 5.11658 95.9282 5.11658H92.8704V11.6437H95.8991ZM99.8983 14.29L105.249 22.6406H100.28L94.8102 14.4075L99.8972 14.29H99.8983Z" fill="black"/>
<path d="M108.781 1H113.044V22.6406H108.781V1Z" fill="black"/>
<path d="M121.891 0L128.212 15.5842L125.742 15.0844L131.475 0.00103924H136.532L126.652 22.6412L116.773 0.00103924H121.89L121.891 0Z" fill="black"/>
<path d="M14.6418 22.6412L8.32043 7.05699L10.7902 7.55676L5.05688 22.6401H0L9.88 0L19.7589 22.6401H14.6428L14.6418 22.6412Z" fill="black"/>
<path d="M29.3449 22.6412L23.0236 7.05699L25.4933 7.55676L19.76 22.6401H14.7031L24.5831 0L34.4621 22.6401H29.346L29.3449 22.6412Z" fill="black"/>
</svg>
